<svg width="93" height="53" viewBox="0 0 93 53" fill="none" xmlns="http://www.w3.org/2000/svg">
<path fill-rule="evenodd" clip-rule="evenodd" d="M7.727 20.7729H0V52.1469H8.362C8.362 52.1469 8.362 35.7689 8.15 34.5989C8.15 34.5989 12.655 41.601 20.377 52.1399H27.429V20.7919H19.127C19.127 20.7919 19.261 35.8159 19.35 37.2959C19.35 37.2959 17.118 33.0799 7.727 20.7729" fill="#B2B2B2"/>
<path opacity="0.6" fill-rule="evenodd" clip-rule="evenodd" d="M48.1681 8.312C43.7151 8.312 40.1051 11.939 40.1051 16.414C40.1051 20.889 43.7151 24.516 48.1681 24.516C52.6221 24.516 56.2321 20.889 56.2321 16.414C56.2321 11.939 52.6221 8.312 48.1681 8.312V8.312ZM64.6231 16.444C64.6231 25.526 57.2961 32.888 48.2581 32.888C39.2191 32.888 31.8921 25.526 31.8921 16.444C31.8921 7.362 39.2191 2.50339e-09 48.2581 2.50339e-09C57.2961 2.50339e-09 64.6231 7.362 64.6231 16.444" fill="#B2B2B2"/>
<path fill-rule="evenodd" clip-rule="evenodd" d="M92.5341 3.94701L88.3091 10.823C88.3091 10.823 84.7391 7.83301 79.6791 7.83301C76.1091 7.83301 76.4361 9.47801 76.4361 9.71701C76.4361 9.95701 76.1241 11.287 82.2981 12.617C88.4401 13.94 92.9511 16.175 92.8911 22.782C92.8331 29.24 87.9511 32.709 79.9181 32.709C71.8841 32.709 66.9441 28.822 66.9441 28.822L71.0511 22.065C71.0511 22.065 75.2171 25.098 80.4531 25.175C84.5601 25.235 84.3211 23.38 84.3211 23.38C84.3211 21.826 82.4171 20.928 76.7641 19.733C71.1101 18.537 67.7181 15.607 67.7181 10.763C67.7181 5.59101 70.8281 0.271013 80.0521 0.254013C88.0261 0.239013 92.5341 3.94701 92.5341 3.94701Z" fill="#B2B2B2"/>
</svg>
