<svg width="139" height="35" viewBox="0 0 139 35" fill="none" xmlns="http://www.w3.org/2000/svg">
<path fill-rule="evenodd" clip-rule="evenodd" d="M138.978 7.74102L136.074 7.74402L136.084 18.611C136.089 21.609 134.36 22.702 132.1 22.747C129.843 22.702 128.649 21.248 128.644 18.276L128.642 7.75202H125.765L125.773 18.282C125.781 24.127 128.609 25.792 132.108 25.792C134.082 25.792 135.433 24.933 136.092 24.144L136.089 26.787C136.036 28.779 135.389 30.783 134.197 31.414C133.07 32.002 132.227 31.851 131.911 31.841V34.969C131.911 34.969 134.066 35.235 135.954 34.162C137.775 33.111 139.001 29.93 138.995 26.578L138.978 7.74102V7.74102ZM27.17 7.67002C25.16 7.67002 23.786 8.54002 23.11 9.31002L23.095 0.457018L20.144 0.462018L20.166 25.71L23.124 25.702L23.113 15.548C23.113 12.565 24.873 10.755 27.175 10.708C29.485 10.752 30.705 12.908 30.709 15.9L30.719 25.692H33.634L33.628 15.9C33.616 10.037 30.738 7.66002 27.171 7.67002H27.17ZM78.511 15.72C78.933 12.382 80.733 10.37 83.441 10.37C86.814 10.37 88.143 12.944 88.457 15.72H78.511V15.72ZM83.516 7.59802C78.81 7.60502 75.602 11.685 75.606 17.086C75.612 22.497 78.967 25.861 83.843 25.85C86.734 25.85 88.58 24.8 90.56 22.448L90.686 22.312L88.874 20.602L88.754 20.73C87.247 22.42 85.931 23.034 83.907 23.034C80.853 23.034 78.894 21.672 78.493 18.324L91.139 18.313L91.164 18.15C91.187 17.735 91.184 17.45 91.187 17.22C91.184 11.465 88.287 7.59402 83.516 7.59802V7.59802ZM97.435 9.76902V7.78102H94.474L94.492 25.626H97.448L97.442 15.412C97.439 12.419 99.852 10.804 102.145 10.751C102.465 10.765 102.786 10.797 103.08 10.859V7.67602C102.769 7.6329 102.455 7.61384 102.141 7.61902C99.991 7.61102 98.436 8.36202 97.435 9.76902V9.76902ZM9.154 11.735C5.731 10.865 3.524 10.249 3.524 7.23902C3.522 4.73002 5.58 3.20002 8.669 3.19502C10.831 3.19502 12.919 4.12502 14.179 5.78502L16.351 3.77202C15.454 2.09202 12.566 0.126018 8.62 0.132018C4.052 0.140018 0.618 3.22702 0.618 7.32002C0.623 12.443 4.264 13.7 7.962 14.646C11.547 15.562 14.058 16.516 14.058 19.45C14.06 22.155 12.048 22.902 8.687 22.902C5.229 22.909 3.237 20.897 2.211 19.291L0 21.369C0.762 23.504 4.386 25.972 8.725 25.972C13.758 25.957 17.01 23.789 16.999 19.325C17.007 14.331 13.199 12.741 9.154 11.735V11.735ZM119.03 0.354018L119.055 25.59L121.969 25.575L121.949 0.348018L119.029 0.354018H119.03ZM47.12 7.84602L47.125 18.618C47.132 21.62 45.758 22.721 43.463 22.765C41.155 22.728 39.791 21.62 39.785 18.635L39.775 7.84902H36.835L36.848 18.774C36.854 23.662 39.327 25.904 43.463 25.896C47.6 25.889 50.063 23.649 50.06 18.767L50.05 7.83502L47.12 7.84502V7.84602ZM71.556 22.303C70.33 21.689 69.666 20.888 69.586 18.896L69.58 10.92L73.884 10.916L73.876 7.81402L69.573 7.82102L69.57 0.410018H66.616L66.63 7.82202H64.508V10.932H66.632L66.642 18.903C66.644 22.245 67.899 24.018 69.769 25.061C71.694 26.128 73.897 25.855 73.897 25.855L73.892 22.737C73.562 22.737 72.699 22.892 71.556 22.304V22.303ZM59.92 22.311C58.695 21.689 58.025 20.897 57.943 18.908V10.941L62.244 10.931V7.82402L57.936 7.83102L57.934 0.421018H54.992L54.997 7.83102H52.874L52.882 10.946H55.005L55.008 18.908C55.017 22.262 56.268 24.026 58.129 25.074C60.054 26.149 62.261 25.874 62.261 25.874V22.747C61.929 22.747 61.065 22.9 59.92 22.311V22.311ZM115.132 7.75102H110.826V7.59302C110.897 5.60502 111.561 4.22302 112.786 3.58902C113.932 3.00102 114.8 3.15602 115.129 3.15602V0.0180181C115.129 0.0180181 112.909 -0.199982 110.994 0.878018C109.145 1.93302 107.887 4.45402 107.89 7.80202L107.887 7.75602H105.764L105.768 10.859H107.89L107.904 25.601L110.846 25.593L110.829 10.851L115.137 10.847L115.132 7.75202V7.75102Z" fill="#B2B2B2"/>
</svg>
