<svg width="41" height="60" viewBox="0 0 41 60" fill="none" xmlns="http://www.w3.org/2000/svg">
<path fill-rule="evenodd" clip-rule="evenodd" d="M5.97864 0C3.21721 0 0.978638 2.23858 0.978638 5V55C0.978638 57.7614 3.21721 60 5.97864 60H28.9076C30.2337 60 31.5054 59.4732 32.4431 58.5355L39.5142 51.4645C40.4519 50.5268 40.9786 49.255 40.9786 47.9289V5C40.9786 2.23858 38.7401 0 35.9786 0H5.97864ZM7.97864 58C5.21721 58 2.97864 55.7614 2.97864 53V7C2.97864 4.23858 5.21721 2 7.97864 2H33.9786C36.7401 2 38.9786 4.23858 38.9786 7V47.1005C38.9786 47.4047 38.9509 47.7061 38.8969 48.0012H29.9502C29.3979 48.0012 28.9502 48.4489 28.9502 49.0012L28.9502 57.9236C28.6646 57.9741 28.3732 58 28.0791 58H7.97864ZM30.9725 57.0778C31.1999 56.9165 31.4149 56.7353 31.6147 56.5355L37.5142 50.636C37.7121 50.4381 37.8917 50.2253 38.0519 50.0003L31.9532 50.0011C31.3998 50.0012 30.9516 50.4508 30.9534 51.0042L30.9725 57.0778ZM17.9786 11C17.9786 10.4477 18.4264 10 18.9786 10H32.9786C33.5309 10 33.9786 10.4477 33.9786 11C33.9786 11.5523 33.5309 12 32.9786 12H18.9786C18.4264 12 17.9786 11.5523 17.9786 11ZM17.9786 19.0005C17.4264 19.0005 16.9786 19.4482 16.9786 20.0005C16.9786 20.5528 17.4264 21.0005 17.9786 21.0005H32.9786C33.5309 21.0005 33.9786 20.5528 33.9786 20.0005C33.9786 19.4482 33.5309 19.0005 32.9786 19.0005H17.9786ZM16.9786 30C16.9786 29.4477 17.4264 29 17.9786 29H32.9786C33.5309 29 33.9786 29.4477 33.9786 30C33.9786 30.5523 33.5309 31 32.9786 31H17.9786C17.4264 31 16.9786 30.5523 16.9786 30ZM17.9786 38.9985C17.4264 38.9985 16.9786 39.4463 16.9786 39.9985C16.9786 40.5508 17.4264 40.9985 17.9786 40.9985H32.9786C33.5309 40.9985 33.9786 40.5508 33.9786 39.9985C33.9786 39.4463 33.5309 38.9985 32.9786 38.9985H17.9786ZM10.1002 13.6801L10.1069 13.687C10.4975 14.0775 11.1306 14.0775 11.5212 13.687L11.5212 13.6869L17.178 8.0301C17.5685 7.63958 17.5685 7.00642 17.178 6.61589C16.7875 6.22537 16.1543 6.22537 15.7638 6.61589L10.8141 11.5656L8.69276 9.44428C8.30224 9.05376 7.66907 9.05376 7.27855 9.44428C6.88803 9.83481 6.88803 10.468 7.27855 10.8585L10.1002 13.6801ZM8.98566 18.0161H12.9857V22.0161H8.98566V18.0161ZM6.98566 18.0161C6.98566 16.9115 7.88109 16.0161 8.98566 16.0161H12.9857C14.0902 16.0161 14.9857 16.9115 14.9857 18.0161V22.0161C14.9857 23.1207 14.0902 24.0161 12.9857 24.0161H8.98566C7.88109 24.0161 6.98566 23.1207 6.98566 22.0161V18.0161ZM12.9857 28H8.98566V32H12.9857V28ZM8.98566 26C7.88109 26 6.98566 26.8954 6.98566 28V32C6.98566 33.1046 7.88109 34 8.98566 34H12.9857C14.0902 34 14.9857 33.1046 14.9857 32V28C14.9857 26.8954 14.0902 26 12.9857 26H8.98566ZM8.99347 37.9985H12.9935V41.9985H8.99347V37.9985ZM6.99347 37.9985C6.99347 36.894 7.8889 35.9985 8.99347 35.9985H12.9935C14.098 35.9985 14.9935 36.894 14.9935 37.9985V41.9985C14.9935 43.1031 14.098 43.9985 12.9935 43.9985H8.99347C7.8889 43.9985 6.99347 43.1031 6.99347 41.9985V37.9985ZM16.9786 50.0005C16.9786 49.4482 17.4264 49.0005 17.9786 49.0005H25.9786C26.5309 49.0005 26.9786 49.4482 26.9786 50.0005C26.9786 50.5528 26.5309 51.0005 25.9786 51.0005H17.9786C17.4264 51.0005 16.9786 50.5528 16.9786 50.0005ZM8.99347 48.0005H12.9935V52.0005H8.99347V48.0005ZM6.99347 48.0005C6.99347 46.8959 7.8889 46.0005 8.99347 46.0005H12.9935C14.098 46.0005 14.9935 46.8959 14.9935 48.0005V52.0005C14.9935 53.1051 14.098 54.0005 12.9935 54.0005H8.99347C7.8889 54.0005 6.99347 53.1051 6.99347 52.0005V48.0005Z" fill="#5528FF"/>
</svg>
